<svg xmlns="http://www.w3.org/2000/svg" viewBox="0 0 329.78 406.01"><defs><linearGradient id="a" x1="660.07" x2="658.46" y1="6.6" y2="108.78" gradientTransform="translate(-45.255 .354)" gradientUnits="userSpaceOnUse"><stop offset="0" stop-color="#c2c2c2"/><stop offset="1" stop-color="#9f9f9f"/></linearGradient></defs><g transform="translate(-399.13 -122.79)"><rect width="329.78" height="406.01" x="399.13" y="122.79" fill="#eee" ry="7.014"/><g transform="translate(43.778 191.04)"><rect width="82.49" height="90.47" x="398.76" y="178.75" fill="#9f9f9f" ry="8.397" transform="rotate(-16.343)"/><g stroke="#fff" stroke-linecap="round" stroke-linejoin="round" transform="rotate(16.321 538.14 -184.9)"><rect width="107.83" height="115.97" x="547.19" y="1.65" fill="url(#a)" stroke-width="5.398" ry="4.596"/><g fill-rule="evenodd" stroke-width="13.071" color="#000"><path fill="#ccc" d="M270 107.36h491.11v450H270z" style="isolation:auto;mix-blend-mode:normal" transform="translate(512.49 -6.33) scale(.17265)"/><path fill="#fff" d="M270 107.36h491.11v210H270z" style="isolation:auto;mix-blend-mode:normal" transform="translate(512.49 -6.33) scale(.17265)"/><path fill="#ccc" d="m300 317.36 38.461-53.538 60.531-45.161 15.883 18.574 13.613-38.684 8.201-2.982L450 167.36l180 180" style="isolation:auto;mix-blend-mode:normal;paint-order:stroke" transform="translate(512.49 -6.33) scale(.17265)"/><path fill="#b3b3b3" d="M180 60a885.959 885.959 0 0 1 17.168 87.877l-22.064-7.16-46.11-29.416 5.324 46.426-1.616 24.787 10.053 30.377 73.186-11.756L300.002 180l-47.8-77.434-9.7 14.934-27.125-22.125z" style="isolation:auto;mix-blend-mode:normal;paint-order:stroke" transform="translate(559.106 12.206) scale(.17265)"/><path fill="#ccc" d="m420 347.36 81.899-74.43 18.506-9.68 23.651-44.19L570 197.36l180 180" style="isolation:auto;mix-blend-mode:normal;paint-order:stroke" transform="translate(512.49 -6.33) scale(.17265)"/><path fill="#b3b3b3" d="m570 197.36 35.939 80.913v60.22l22.459 19.467a81.573 81.573 0 0 1 22.444-15.705c14.824-7.004 31.338-9.36 47.171-13.622 6.428-1.73 12.907-3.854 18.213-7.873a29.83 29.83 0 0 0 3.774-3.4h-30l-40.52-40.55-29.857-48.92-10.253 8.838z" style="isolation:auto;mix-blend-mode:normal;paint-order:stroke" transform="translate(512.49 -6.33) scale(.17265)"/><path fill="#fff" d="M420 557.36c-.417-9.6-8.818-17.609 17.125-30.668 31.832-16.024 125.9-35.888 152.15-59.984 19.427-17.827-70.415-37.669-55.019-59.073 6.981-9.705 59.037-19.969 82.146-30.274 21.906-9.768 15.141-19.803 31.405-29.975 15.709-9.826 68.35-19.774 72.189-30.025-10.414 10.522-68.834 20.403-90 30-22.338 10.128-21.469 19.93-49.431 29.484-30.124 10.292-89.142 20.553-102.71 30.516-28.413 20.869 46.863 42.6 16.202 60-41.52 23.563-149.34 43.294-194.06 60-30.904 11.544-28.408 17.748-30 30" style="isolation:auto;mix-blend-mode:normal;paint-order:stroke" transform="translate(512.49 -6.33) scale(.17265)"/></g></g></g><text xml:space="preserve" x="562.007" y="412.125" fill="#767676" font-family="sans-serif" font-size="32" font-weight="bold" style="line-height:1.25" text-anchor="middle"><tspan x="562.007" y="412.125">NO IMAGE</tspan><tspan x="562.007" y="452.125">AVAILABLE</tspan></text></g></svg>